<svg display="none" xmlns="http://www.w3.org/2000/svg">

    <!-- svg arrow -->
    
    <symbol id="svg-arrow" viewBox="0 0 9 13">
        <g>
            <path d="M0.649902 11.375L5.63324 6.5L0.649902 1.51667L2.16657 0L8.66657 6.5L2.16657 13L0.649902 11.375Z"/>
        </g>
    </symbol>

    <!-- svg arrow big-->
    
    <symbol id="svg-arrow-big" viewBox="0 0 32 50">
        <g>
            <path d="M0.649902 43.75L19.8166 25L0.649902 5.83333L6.48324 0L31.4832 25L6.48324 50L0.649902 43.75Z"/>
        </g>
    </symbol>


    <!-- svg arrow emp-->
    
    <symbol id="svg-arrow-emp" viewBox="0 0 50 32">
        <g>
            <path d="M24.9986 31.0399C23.6425 31.0399 22.3677 30.5108 21.4087 29.5528L1.48422 9.62608C-0.49474 7.64712 -0.49474 4.42615 1.48422 2.44719C2.44325 1.48816 3.71808 0.960114 5.07542 0.960114C6.43277 0.960114 7.7076 1.48816 8.6654 2.44719L24.9986 18.7827L41.3331 2.44719C42.2921 1.48816 43.5659 0.960114 44.9231 0.960114C46.2803 0.960114 47.554 1.48816 48.5131 2.44719C49.4731 3.40621 50.0001 4.68105 50.0001 6.03716C50.0001 7.39328 49.4721 8.66811 48.5131 9.62714L28.5897 29.5495C27.6296 30.5118 26.3535 31.0399 24.9986 31.0399ZM5.07525 3.21662C4.32162 3.21662 3.6131 3.50996 3.07943 4.0424C1.97944 5.14239 1.97944 6.93176 3.07943 8.03069L23.0039 27.9564C24.06 29.0125 25.8887 29.026 26.9572 27.989L46.9154 8.03087C47.4491 7.4972 47.7412 6.78974 47.7412 6.03611C47.7412 5.28248 47.4478 4.57502 46.9154 4.04135C45.8493 2.97629 43.9932 2.97629 42.9271 4.04135L24.9986 21.9733L7.07001 4.04258C6.53634 3.50996 5.82888 3.21662 5.07525 3.21662Z"/>
        </g>
    </symbol>


    <!-- svg-x -->
    <symbol id="svg-x" viewBox="0 0 26 28">
        <g>
           <path d="M24.5648 22.2115L17.2308 13.8302L24.5648 5.44843C25.811 4.20164 25.811 2.18093 24.5648 0.934671C23.3174 -0.311586 21.2967 -0.311054 20.051 0.935203L12.9995 8.99465L5.94803 0.935203C4.70177 -0.310522 2.68159 -0.311054 1.43427 0.934671C0.188014 2.18146 0.188014 4.20217 1.43427 5.44843L8.7682 13.8302L1.43427 22.2115C0.188014 23.4577 0.188014 25.4784 1.43374 26.7247C2.68053 27.9715 4.70124 27.9715 5.94803 26.7247L12.9995 18.6652L20.051 26.7247C21.2983 27.9715 23.319 27.9715 24.5653 26.7247C25.811 25.4784 25.811 23.4577 24.5648 22.2115Z"/>
        </g>
    </symbol>


    <!-- svg-facebook -->
    <symbol id="svg-facebook" viewBox="0 0 10 18">
        <g>
           <path fill-rule="evenodd" clip-rule="evenodd" d="M6.63916 18V9.9H9.09831L9.5 6.3H6.63916V4.54658C6.63916 3.61958 6.66284 2.7 7.95821 2.7H9.27022V0.126123C9.27022 0.087423 8.14324 0 7.00311 0C4.62199 0 3.13106 1.49148 3.13106 4.23018V6.3H0.5V9.9H3.13106V18H6.63916Z"/>
        </g>
    </symbol>


    <!-- svg-pin -->
    <symbol id="svg-pin" viewBox="0 0 18 18">
        <g>
           <path fill-rule="evenodd" clip-rule="evenodd" d="M8.88841 0C3.95911 0 0 3.99118 0 8.96265C0 12.6527 2.1663 15.7405 5.3037 17.1716C5.3037 15.4909 5.29199 15.7075 6.57269 10.2423C5.86889 8.82204 6.4161 6.4771 7.992 6.4771C10.179 6.4771 8.69311 9.71957 8.44021 10.9956C8.21611 11.9748 8.9631 12.7283 9.8595 12.7283C11.5776 12.7283 12.6972 10.5437 12.6972 7.98354C12.6972 6.02508 11.3535 4.59404 9.03781 4.59404C4.92031 4.59404 3.8763 9.1796 5.3037 10.6189C5.6628 11.1626 5.3037 11.188 5.3037 11.8995C5.0544 12.6519 3.0627 11.5583 3.0627 8.73677C3.0627 6.17571 5.1543 3.16362 9.4113 3.16362C12.7719 3.16362 15.0129 5.64863 15.0129 8.28501C15.0129 11.8244 13.0707 14.3855 10.233 14.3855C9.2619 14.3855 8.3655 13.8578 8.0667 13.2552C7.524 15.3661 7.41419 16.4363 6.57269 17.6234C7.39439 17.8494 8.2161 18 9.1125 18C14.0418 18 18 14.0088 18 9.03823C17.7768 3.99145 13.8177 0 8.88841 0Z"/>
        </g>
    </symbol>


    <!-- svg-vk -->
    <symbol id="svg-vk" viewBox="0 0 19 19">
        <g>
           <path fill-rule="evenodd" clip-rule="evenodd" d="M1.92675 1.92663C0.666748 3.19862 0.666748 5.23262 0.666748 9.30663V10.0266C0.666748 14.0946 0.666748 16.1286 1.92675 17.4066C3.19875 18.6666 5.23275 18.6666 9.30675 18.6666H10.0267C14.0947 18.6666 16.1287 18.6666 17.4067 17.4066C18.6667 16.1347 18.6667 14.1007 18.6667 10.0266V9.30663C18.6667 5.23863 18.6667 3.20463 17.4067 1.92663C16.1348 0.666626 14.1008 0.666626 10.0267 0.666626H9.30675C5.23875 0.666626 3.20475 0.666626 1.92675 1.92663ZM3.70275 6.14463C3.79875 10.8247 6.13875 13.6327 10.2427 13.6327H10.4828V10.9566C11.9887 11.1066 13.1288 12.2107 13.5847 13.6327H15.7147C15.4963 12.8246 15.109 12.0721 14.5784 11.4246C14.0479 10.7772 13.3861 10.2496 12.6367 9.8766C13.3082 9.46773 13.8882 8.92467 14.3404 8.28153C14.7925 7.63839 15.1072 6.90889 15.2647 6.13863H13.3327C12.9128 7.62663 11.6647 8.9766 10.4828 9.1026V6.14463H8.54472V11.3287C7.34475 11.0286 5.83275 9.57663 5.76674 6.14463H3.70275Z"/>
        </g>
    </symbol>



     <!-- svg-phone -->
    <symbol id="svg-phone" viewBox="0 0 31 30">
        <g>
           <path d="M29.0014 26.179V21.9639C29.0185 21.2747 28.7813 20.6034 28.3347 20.0774C27.0756 18.5944 22.7574 17.6458 21.0456 18.0101C19.7114 18.2941 18.7778 19.6338 17.8651 20.5447C14.3405 18.5444 11.4222 15.632 9.41807 12.1142C10.3307 11.2034 11.6731 10.2717 11.9577 8.94007C12.3222 7.23438 11.3749 2.94371 9.90204 1.67959C9.38399 1.23495 8.7216 0.993478 8.03837 1.0002H3.81481C2.20554 1.00171 0.866669 2.44509 1.01319 4.06325C1.00219 18.0101 11.8912 29.0001 25.9323 28.9891C27.5591 29.1359 29.0079 27.7904 29.0014 26.179Z" stroke-width="2" stroke-linecap="round" stroke-linejoin="round"/>
        </g>
    </symbol>



    <!-- svg-mail -->
    <symbol id="svg-mail" viewBox="0 0 36 29">
        <g>
           <path d="M35.5806 4.02058C35.4198 3.21056 35.0606 2.4693 34.559 1.85695C34.4533 1.72352 34.3428 1.60403 34.223 1.48454C33.3343 0.59147 32.087 0.0343628 30.7244 0.0343628H4.94826C3.58566 0.0343628 2.34283 0.59147 1.44997 1.48454C1.33048 1.60403 1.21998 1.72352 1.11394 1.85695C0.612079 2.46923 0.252914 3.21056 0.0965671 4.02058C0.0323284 4.3332 0 4.65628 0 4.9829V23.0863C0 23.7808 0.147289 24.4484 0.409957 25.0513C0.653605 25.6268 1.01284 26.1475 1.4499 26.5842C1.56068 26.6947 1.67069 26.7963 1.79074 26.8973C2.64675 27.6062 3.75169 28.0344 4.94826 28.0344H30.7244C31.9214 28.0344 33.0312 27.6062 33.8822 26.8928C34.0019 26.7963 34.1125 26.6947 34.223 26.5842C34.6599 26.1475 35.019 25.6268 35.2677 25.0513V25.0468C35.5303 24.444 35.6726 23.7808 35.6726 23.0864V4.9829C35.6727 4.65628 35.6409 4.3332 35.5806 4.02058ZM3.24043 3.2748C3.68251 2.83321 4.27619 2.56587 4.94826 2.56587H30.7244C31.3965 2.56587 31.9954 2.83321 32.4323 3.2748C32.5104 3.35346 32.5841 3.44111 32.6491 3.5282L19.139 15.3026C18.7663 15.6292 18.3061 15.7905 17.8363 15.7905C17.3713 15.7905 16.9114 15.6292 16.5338 15.3026L3.02883 3.52318C3.08861 3.43609 3.16226 3.35346 3.24043 3.2748ZM2.53151 23.0863V6.14283L12.3083 14.6719L2.53645 23.1919C2.53151 23.1595 2.53151 23.1232 2.53151 23.0863ZM30.7244 25.5024H4.94826C4.51065 25.5024 4.10118 25.3873 3.75169 25.1852L14.0618 16.2002L15.0243 17.0376C15.8298 17.7375 16.8378 18.092 17.8363 18.092C18.8401 18.092 19.848 17.7375 20.6534 17.0376L21.6154 16.2002L31.9215 25.1852C31.5715 25.3873 31.1621 25.5024 30.7244 25.5024ZM33.1412 23.0863C33.1412 23.1232 33.1412 23.1595 33.1364 23.1919L23.3646 14.6768L33.1412 6.14735V23.0863Z"/>
        </g>
    </symbol>



    <!-- svg-map -->
    <symbol id="svg-map" viewBox="0 0 24 28">
        <g>
           <path d="M11.6166 27.754C11.6166 27.754 11.6172 27.7545 12.3334 26.8335L13.0496 27.7545C12.6283 28.0821 12.0379 28.0817 11.6166 27.754Z" />
           <path fill-rule="evenodd" clip-rule="evenodd" d="M12.3333 7C9.75598 7 7.66663 9.08935 7.66663 11.6667C7.66663 14.244 9.75598 16.3334 12.3333 16.3334C14.9106 16.3334 17 14.244 17 11.6667C17 9.08935 14.9106 7 12.3333 7ZM9.99998 11.6667C9.99998 10.378 11.0446 9.33335 12.3333 9.33335C13.622 9.33335 14.6667 10.378 14.6667 11.6667C14.6667 12.9554 13.622 14 12.3333 14C11.0446 14 9.99998 12.9554 9.99998 11.6667Z"/>
           <path fill-rule="evenodd" clip-rule="evenodd" d="M11.6166 27.754L12.3334 26.8335C13.0496 27.7545 13.0509 27.7534 13.0509 27.7534L13.0531 27.7518L13.0603 27.7461L13.0859 27.726C13.1078 27.7086 13.1394 27.6837 13.1801 27.6511C13.2613 27.5861 13.3788 27.4912 13.5272 27.3687C13.8239 27.1238 14.245 26.7682 14.7491 26.3201C15.7557 25.4253 17.1012 24.1549 18.4506 22.6557C19.7966 21.1601 21.1687 19.4123 22.2096 17.5617C23.2446 15.7219 24.0001 13.6959 24.0001 11.6667C24.0001 8.57254 22.7709 5.60505 20.583 3.41711C18.3951 1.22917 15.4276 0 12.3334 0C9.23916 0 6.27168 1.22917 4.08373 3.41711C1.8958 5.60505 0.666626 8.57254 0.666626 11.6667C0.666626 13.6959 1.42219 15.7219 2.45709 17.5617C3.49806 19.4123 4.87019 21.1601 6.21616 22.6557C7.56551 24.1549 8.91107 25.4253 9.91764 26.3201C10.4218 26.7682 10.8428 27.1238 11.1395 27.3687C11.2879 27.4912 11.4054 27.5861 11.4866 27.6511C11.5273 27.6837 11.5589 27.7086 11.5809 27.726L11.6064 27.7461L11.6137 27.7518L11.6166 27.754ZM5.73367 5.06704C7.48402 3.31668 9.858 2.33335 12.3334 2.33335C14.8087 2.33335 17.1828 3.31668 18.9331 5.06704C20.6834 6.81739 21.6668 9.19138 21.6668 11.6667C21.6668 13.1376 21.1098 14.7575 20.176 16.4177C19.2481 18.0671 17.9952 19.6735 16.7162 21.0946C15.4406 22.512 14.1611 23.7208 13.1989 24.5761C12.8672 24.8709 12.5743 25.1228 12.3334 25.3259C12.0925 25.1228 11.7995 24.8709 11.4678 24.5761C10.5057 23.7208 9.22618 22.512 7.95051 21.0946C6.67147 19.6735 5.41857 18.0671 4.49079 16.4177C3.55692 14.7575 2.99998 13.1376 2.99998 11.6667C2.99998 9.19138 3.98331 6.81739 5.73367 5.06704Z" />
        </g>
    </symbol>



   
    

</svg>
