<svg width="24" height="28" viewBox="0 0 24 28" fill="none" xmlns="http://www.w3.org/2000/svg">
<path d="M11.6166 27.754C11.6166 27.754 11.6172 27.7545 12.3334 26.8335L13.0496 27.7545C12.6283 28.0821 12.0379 28.0817 11.6166 27.754Z" fill="black"/>
<path fill-rule="evenodd" clip-rule="evenodd" d="M12.3333 7C9.75598 7 7.66663 9.08935 7.66663 11.6667C7.66663 14.244 9.75598 16.3334 12.3333 16.3334C14.9106 16.3334 17 14.244 17 11.6667C17 9.08935 14.9106 7 12.3333 7ZM9.99998 11.6667C9.99998 10.378 11.0446 9.33335 12.3333 9.33335C13.622 9.33335 14.6667 10.378 14.6667 11.6667C14.6667 12.9554 13.622 14 12.3333 14C11.0446 14 9.99998 12.9554 9.99998 11.6667Z" fill="black"/>
<path fill-rule="evenodd" clip-rule="evenodd" d="M11.6166 27.754L12.3334 26.8335C13.0496 27.7545 13.0509 27.7534 13.0509 27.7534L13.0531 27.7518L13.0603 27.7461L13.0859 27.726C13.1078 27.7086 13.1394 27.6837 13.1801 27.6511C13.2613 27.5861 13.3788 27.4912 13.5272 27.3687C13.8239 27.1238 14.245 26.7682 14.7491 26.3201C15.7557 25.4253 17.1012 24.1549 18.4506 22.6557C19.7966 21.1601 21.1687 19.4123 22.2096 17.5617C23.2446 15.7219 24.0001 13.6959 24.0001 11.6667C24.0001 8.57254 22.7709 5.60505 20.583 3.41711C18.3951 1.22917 15.4276 0 12.3334 0C9.23916 0 6.27168 1.22917 4.08373 3.41711C1.8958 5.60505 0.666626 8.57254 0.666626 11.6667C0.666626 13.6959 1.42219 15.7219 2.45709 17.5617C3.49806 19.4123 4.87019 21.1601 6.21616 22.6557C7.56551 24.1549 8.91107 25.4253 9.91764 26.3201C10.4218 26.7682 10.8428 27.1238 11.1395 27.3687C11.2879 27.4912 11.4054 27.5861 11.4866 27.6511C11.5273 27.6837 11.5589 27.7086 11.5809 27.726L11.6064 27.7461L11.6137 27.7518L11.6166 27.754ZM5.73367 5.06704C7.48402 3.31668 9.858 2.33335 12.3334 2.33335C14.8087 2.33335 17.1828 3.31668 18.9331 5.06704C20.6834 6.81739 21.6668 9.19138 21.6668 11.6667C21.6668 13.1376 21.1098 14.7575 20.176 16.4177C19.2481 18.0671 17.9952 19.6735 16.7162 21.0946C15.4406 22.512 14.1611 23.7208 13.1989 24.5761C12.8672 24.8709 12.5743 25.1228 12.3334 25.3259C12.0925 25.1228 11.7995 24.8709 11.4678 24.5761C10.5057 23.7208 9.22618 22.512 7.95051 21.0946C6.67147 19.6735 5.41857 18.0671 4.49079 16.4177C3.55692 14.7575 2.99998 13.1376 2.99998 11.6667C2.99998 9.19138 3.98331 6.81739 5.73367 5.06704Z" fill="black"/>
</svg>
